<svg width="64" height="64" viewBox="0 0 64 64" fill="none" xmlns="http://www.w3.org/2000/svg">
<g clip-path="url(#clip0_33_1959)">
<path d="M50.4863 26.2286C50.4984 24.2305 50.9265 22.2567 51.7434 20.4332L53.1326 17.2526L49.864 16.2783C48.4371 15.8572 47.4 14.776 46.7777 13.06L45.3131 9.10004L42.1011 11.7715C41.1289 12.6613 39.8729 13.1779 38.556 13.2298C36.8706 13.179 35.2671 12.4918 34.068 11.3063L32 9.25718L29.932 11.3126C28.7356 12.4982 27.1339 13.1856 25.4503 13.236C24.1304 13.184 22.8718 12.665 21.8989 11.7715L18.6869 9.10004L17.2474 13.0726C16.6189 14.7886 15.588 15.8698 14.1674 16.2909L10.8926 17.2652L12.288 20.4457C13.0895 22.2687 13.5067 24.2373 13.5137 26.2286C13.5137 31.6595 10.8737 32.7343 10.8737 38.4355C10.8737 46.0663 16.5309 51.5475 22.7537 53.1692C25.84 53.9486 27.2731 54.0303 29.5737 54.6777C29.8754 54.9983 32 57.3115 32 57.3115C32 57.3115 34.1246 54.9983 34.4263 54.6777C36.7269 54.0492 38.1977 53.9486 41.2526 53.1692C47.488 51.5475 53.1263 46.0663 53.1263 38.4355C53.1263 32.7343 50.4863 31.6595 50.4863 26.2286ZM40.8754 51.7109C37.5754 52.5469 35.2937 52.7669 33.6154 53.3766C33.3954 53.5778 32 55.1052 32 55.1052C32 55.1052 30.6046 53.5778 30.3909 53.3766C28.7126 52.748 26.4309 52.5469 23.1246 51.7109C16.1726 49.9383 12.3571 44.0549 12.3571 38.448C12.3571 33.3566 15.0286 31.7915 15.0286 26.2286C14.9542 23.4389 14.2402 20.7034 12.9417 18.2332C12.9417 18.2332 17.9703 17.7932 19.3531 11.6143C19.3531 11.6143 22.3829 14.7572 25.4503 14.7572C29.3977 14.7509 32 11.3692 32 11.3692C32 11.3692 34.6023 14.7509 38.556 14.7509C41.6234 14.7509 44.6469 11.608 44.6469 11.608C46.0109 17.7869 51.0583 18.2269 51.0583 18.2269C49.7698 20.7017 49.0666 23.4392 49.0029 26.2286C49.0029 31.7915 51.6429 33.3566 51.6429 38.448C51.6429 44.0549 47.8337 49.9383 40.8754 51.7109Z" fill="#CFD2D3"/>
<path d="M47.5194 26.2286C47.5297 23.8108 48.0368 21.421 49.0091 19.2074C49.0091 19.2074 45.5771 18.5097 43.9806 14.1286C42.4721 15.4447 40.5567 16.2015 38.556 16.272C36.0979 16.2027 33.7566 15.2082 32 13.4874C30.2453 15.2073 27.9063 16.2017 25.4503 16.272C23.4601 16.1964 21.5563 15.4397 20.0571 14.1286C18.4606 18.5286 15.0286 19.2074 15.0286 19.2074C15.988 21.4238 16.4822 23.8135 16.4806 26.2286C16.4806 32.112 13.8406 33.8154 13.8406 38.448C13.8406 44.9286 18.8691 49.052 23.4954 50.24C27.1726 51.1766 29.5737 51.2834 31.1891 52.0691C31.1891 52.0691 31.78 52.6097 32 52.8611C32.22 52.6097 32.8109 52.0691 32.8109 52.0691C34.4263 51.2834 36.8337 51.1766 40.5109 50.24C45.1497 49.052 50.1594 44.9286 50.1594 38.448C50.1594 33.8154 47.5194 32.112 47.5194 26.2286ZM18.1714 26.2286C18.1583 24.156 17.8189 22.0984 17.1657 20.1314C18.6283 19.305 19.8436 18.1028 20.6857 16.6491C22.1313 17.4926 23.7705 17.9473 25.444 17.9691C27.8143 17.9309 30.1108 17.1383 32 15.7063C33.8901 17.1367 36.186 17.9292 38.556 17.9691C39.0107 17.9692 39.4646 17.9334 39.9137 17.8623L15.8331 36.0909C16.5246 33.344 18.1714 31.0749 18.1714 26.2286ZM21.4526 47.644C18.3663 46.0474 15.6571 42.9863 15.5314 38.8L43.8171 17.4286C44.6127 18.5588 45.6525 19.4955 46.8594 20.1691C46.2016 22.1228 45.8538 24.1673 45.8286 26.2286C45.8254 27.1668 45.8926 28.1039 46.0297 29.032L21.4526 47.644ZM40.1023 48.5869C37.1857 49.3349 33.6217 49.7183 32.5594 50.3406C32.366 50.4911 32.1852 50.6572 32.0189 50.8371C31.8536 50.6583 31.675 50.4923 31.4846 50.3406C30.4034 49.712 26.8394 49.3349 23.9417 48.5869L23.6086 48.4989L46.5326 31.1503C47.312 33.9034 48.5063 35.7074 48.5063 38.448C48.5063 43.9417 44.1629 47.556 40.1274 48.5869" fill="#CFD2D3"/>
<path d="M26.0286 38.8L23.3886 34.7206L20.4594 36.9143C20.6 36.9192 20.7383 36.9519 20.8662 37.0106C20.9941 37.0693 21.109 37.1529 21.2043 37.2564C21.2997 37.3599 21.3735 37.4813 21.4215 37.6136C21.4695 37.7459 21.4907 37.8863 21.484 38.0269V45.7143L23.552 44.1492V38.7372L25.9091 42.3766L28.0966 40.7235V31.1566L26.0286 32.7218V38.8Z" fill="#CFD2D3"/>
<path d="M34.42 29.912L32.088 31.672V28.1143L28.9451 30.5028C29.0866 30.506 29.2259 30.5376 29.3549 30.5956C29.4839 30.6537 29.6 30.7371 29.6961 30.8409C29.7923 30.9446 29.8666 31.0667 29.9147 31.1997C29.9628 31.3328 29.9836 31.4741 29.976 31.6154V39.3154L32.1006 37.7063V34.2051L34.4326 32.4388V35.94L36.444 34.4V24.8457L34.42 26.3794V29.912Z" fill="#CFD2D3"/>
<path d="M40.3349 29.0194V21.8977L37.192 24.2863C37.3335 24.2894 37.4728 24.321 37.6018 24.3791C37.7308 24.4371 37.8469 24.5205 37.943 24.6243C38.0392 24.7281 38.1135 24.8501 38.1616 24.9832C38.2096 25.1162 38.2305 25.2576 38.2229 25.3988V33.0674L44.0874 28.6297C44.0067 27.8188 44.0067 27.0018 44.0874 26.1908L40.3349 29.0194Z" fill="#CFD2D3"/>
<path d="M43.7983 17.3909L15.5314 38.8C15.6697 43.0052 18.3663 46.0663 21.4463 47.6629L46.036 29.032C45.8966 28.1041 45.8272 27.1669 45.8286 26.2286C45.8417 24.156 46.1811 22.0984 46.8343 20.1314C45.6274 19.4578 44.5876 18.5211 43.792 17.3909M28.0777 40.7234L25.8966 42.3766L23.552 38.7372V44.1617L21.484 45.7143V38.052C21.4916 37.9116 21.4709 37.771 21.4232 37.6387C21.3754 37.5064 21.3016 37.3851 21.206 37.2819C21.1104 37.1787 20.9951 37.0958 20.8668 37.038C20.7386 36.9803 20.6 36.9489 20.4594 36.9457L23.3886 34.7206L26.0286 38.8V32.7217L28.0966 31.1566L28.0777 40.7234ZM36.444 34.4L34.42 35.9337V32.4389L32.088 34.2052V37.7063L29.9634 39.3154V31.6406C29.971 31.4993 29.9502 31.358 29.9021 31.2249C29.854 31.0918 29.7797 30.9698 29.6836 30.866C29.5874 30.7623 29.4714 30.6789 29.3424 30.6208C29.2134 30.5627 29.074 30.5312 28.9326 30.528L32.0754 28.1394V31.6783L34.4074 29.912V26.3794L36.4314 24.8457L36.444 34.4ZM44.0749 28.6234L38.2103 33.0612V25.3989C38.2179 25.2576 38.1971 25.1162 38.149 24.9832C38.1009 24.8501 38.0266 24.7281 37.9304 24.6243C37.8343 24.5205 37.7183 24.4371 37.5892 24.3791C37.4602 24.321 37.3209 24.2895 37.1794 24.2863L40.3223 21.8977V29.0194L44.0937 26.1909C44.0129 27.0018 44.0129 27.8188 44.0937 28.6297" fill="#231F20"/>
<path d="M38.556 17.9691C36.186 17.9291 33.8901 17.1367 32 15.7062C30.1125 17.137 27.8184 17.9295 25.4503 17.9691C23.7747 17.9484 22.1331 17.4936 20.6857 16.6491C19.839 18.1052 18.6197 19.3093 17.1531 20.1377C17.8113 22.1016 18.1549 24.1573 18.1714 26.2285C18.1714 31.0748 16.5308 33.344 15.8394 36.0845L39.92 17.856C39.4709 17.9271 39.0169 17.9628 38.5623 17.9628" fill="#231F20"/>
<path d="M23.5771 48.4988L23.9103 48.5868C26.8206 49.3348 30.3846 49.7183 31.4531 50.3406C31.6436 50.4923 31.8222 50.6583 31.9874 50.8371C32.1538 50.6572 32.3346 50.4911 32.528 50.3406C33.6029 49.712 37.1669 49.3348 40.0709 48.5868C44.1063 47.556 48.4497 43.9417 48.4497 38.448C48.4497 35.7074 47.2554 33.9034 46.476 31.1503L23.5771 48.4988Z" fill="#231F20"/>
<path d="M44.6468 11.6142C44.6468 11.6142 41.6234 14.7571 38.556 14.7571C34.6023 14.7508 32 11.3691 32 11.3691C32 11.3691 29.3977 14.7508 25.4503 14.7508C22.3828 14.7508 19.3531 11.6079 19.3531 11.6079C17.9891 17.7868 12.9417 18.2331 12.9417 18.2331C14.2402 20.7033 14.9541 23.4388 15.0285 26.2285C15.0285 31.7914 12.3885 33.3565 12.3885 38.4479C12.3885 44.0548 16.204 49.9382 23.156 51.7108C26.4623 52.5468 28.7377 52.7668 30.4223 53.3765C30.636 53.5776 32.0314 55.1051 32.0314 55.1051C32.0314 55.1051 33.4268 53.5776 33.6468 53.3765C35.3251 52.7479 37.6068 52.5468 40.9068 51.7108C47.8651 49.9382 51.6743 44.0548 51.6743 38.4479C51.6743 33.3565 49.0343 31.7914 49.0343 26.2285C49.0999 23.4434 49.8031 20.7104 51.0897 18.2394C51.0897 18.2394 46.0611 17.7931 44.6783 11.6142M47.5194 26.2285C47.5194 32.1119 50.1594 33.8154 50.1594 38.4479C50.1594 44.9285 45.1308 49.0519 40.5108 50.2399C36.8337 51.1765 34.4263 51.2834 32.8108 52.0691C32.8108 52.0691 32.22 52.6096 32 52.8611C31.78 52.6096 31.1891 52.0691 31.1891 52.0691C29.5737 51.2834 27.1726 51.1765 23.4954 50.2399C18.8503 49.0519 13.8405 44.9285 13.8405 38.4479C13.8405 33.8154 16.4806 32.1119 16.4806 26.2285C16.4703 23.8108 15.9632 21.421 14.9908 19.2074C14.9908 19.2074 18.4291 18.5097 20.0194 14.1285C21.5268 15.4464 23.4429 16.2035 25.444 16.2719C27.9022 16.2032 30.2437 15.2087 32 13.4874C33.7566 15.2082 36.0979 16.2026 38.556 16.2719C40.5566 16.2014 42.4721 15.4446 43.9806 14.1285C45.5771 18.5285 49.0091 19.2074 49.0091 19.2074C48.0367 21.421 47.5297 23.8108 47.5194 26.2285Z" fill="#231F20"/>
<path d="M54 16.844L50.0211 15.6623C48.808 15.304 47.9154 14.3549 47.3686 12.8526L45.6086 8L41.6863 11.2749C40.8278 12.0711 39.7133 12.5347 38.5434 12.5823C37.0311 12.5263 35.5942 11.9076 34.5143 10.8474L32 8.33314L29.4857 10.8474C28.4084 11.9077 26.9734 12.5266 25.4629 12.5823C24.2933 12.5331 23.1794 12.0697 22.32 11.2749L18.3914 8L16.6314 12.8526C16.0846 14.3549 15.1983 15.304 13.9789 15.6623L10 16.844L11.6909 20.7097C12.4599 22.4483 12.8601 24.3275 12.8663 26.2286C12.8663 31.4457 10.22 32.64 10.22 38.4354C10.22 46.7891 16.6314 52.264 22.5903 53.804C25.6011 54.5394 26.5126 54.5897 29.228 55.2623L32 58.2857L34.772 55.2749C37.4937 54.6023 38.3989 54.552 41.4097 53.8166C47.3686 52.2703 53.78 46.8017 53.78 38.448C53.78 32.6526 51.1337 31.4583 51.1337 26.2411C51.1381 24.3358 51.5384 22.4522 52.3091 20.7097L54 16.844ZM50.4863 26.2286C50.4863 31.6594 53.1263 32.7343 53.1263 38.4354C53.1263 46.0663 47.4691 51.5474 41.2526 53.1691C38.1663 53.9486 36.7269 54.0303 34.4263 54.6777C34.1246 54.9983 32 57.3114 32 57.3114C32 57.3114 29.8754 54.9983 29.5737 54.6777C27.2731 54.0491 25.84 53.9486 22.7537 53.1691C16.512 51.5474 10.8737 46.0663 10.8737 38.4354C10.8737 32.7343 13.5137 31.6594 13.5137 26.2286C13.5067 24.2372 13.0895 22.2687 12.288 20.4457L10.8989 17.2651L14.1674 16.2909C15.588 15.8697 16.6251 14.7886 17.2474 13.0726L18.6869 9.1L21.8989 11.7714C22.8745 12.6598 24.1319 13.1762 25.4503 13.2297C27.1339 13.1793 28.7356 12.4918 29.932 11.3063L32 9.25714L34.068 11.3189C35.2664 12.5053 36.8704 13.1928 38.556 13.2423C39.874 13.1843 41.1293 12.6635 42.1011 11.7714L45.3131 9.09371L46.7526 13.0663C47.3811 14.7823 48.412 15.8634 49.8389 16.2846L53.1074 17.2589L51.7183 20.4457C50.9014 22.2693 50.4732 24.243 50.4611 26.2411" fill="#231F20"/>
<path d="M51.9069 49.0772C51.5669 49.0747 51.2339 49.1732 50.9501 49.3603C50.6663 49.5473 50.4444 49.8144 50.3125 50.1278C50.1807 50.4411 50.145 50.7865 50.2097 51.1202C50.2745 51.4539 50.437 51.7608 50.6764 52.0021C50.9159 52.2433 51.2217 52.408 51.5549 52.4752C51.8881 52.5425 52.2337 52.5092 52.548 52.3797C52.8623 52.2502 53.1311 52.0303 53.3202 51.7478C53.5093 51.4654 53.6103 51.1331 53.6103 50.7932C53.6111 50.5687 53.5677 50.3462 53.4825 50.1384C53.3974 49.9307 53.2721 49.7417 53.114 49.5824C52.9558 49.4231 52.7678 49.2964 52.5607 49.2097C52.3535 49.1231 52.1314 49.078 51.9069 49.0772ZM51.9069 52.1383C51.6388 52.1408 51.376 52.0635 51.152 51.9163C50.928 51.769 50.7528 51.5585 50.6488 51.3114C50.5447 51.0643 50.5165 50.7919 50.5678 50.5287C50.619 50.2656 50.7473 50.0236 50.9365 49.8336C51.1256 49.6436 51.3669 49.5141 51.6298 49.4617C51.8928 49.4092 52.1653 49.4361 52.4129 49.539C52.6604 49.6419 52.8718 49.816 53.0201 50.0394C53.1684 50.2627 53.247 50.5251 53.2457 50.7932C53.2465 50.9695 53.2125 51.1443 53.1456 51.3075C53.0787 51.4706 52.9802 51.619 52.8558 51.744C52.7314 51.869 52.5835 51.9682 52.4207 52.0358C52.2578 52.1035 52.0832 52.1383 51.9069 52.1383Z" fill="white"/>
<path d="M52.7428 50.3909C52.7428 50.2386 52.6828 50.0925 52.5757 49.9842C52.4686 49.8759 52.3231 49.8143 52.1708 49.8126H51.3348V51.7675H51.6994V50.9755H51.9634L52.328 51.7675H52.7428L52.3594 50.9378C52.4725 50.8983 52.5704 50.8242 52.6392 50.7261C52.708 50.628 52.7443 50.5107 52.7428 50.3909ZM52.1708 50.6046H51.712V50.1772H52.1708C52.2275 50.1772 52.2819 50.1997 52.322 50.2398C52.362 50.2799 52.3846 50.3342 52.3846 50.3909C52.3846 50.4476 52.362 50.502 52.322 50.542C52.2819 50.5821 52.2275 50.6046 52.1708 50.6046Z" fill="white"/>
</g>
<defs>
<clipPath id="clip0_33_1959">
<rect width="44" height="50.2857" fill="white" transform="translate(10 8)"/>
</clipPath>
</defs>
</svg>
