<svg width="71" height="64" viewBox="0 0 71 64" fill="none" xmlns="http://www.w3.org/2000/svg">
<g clip-path="url(#clip0_33_1954)">
<path d="M38.9917 50.6632C38.3792 50.6632 37.882 51.1597 37.882 51.7726C37.882 52.3849 38.3792 52.8821 38.9917 52.8821C39.6042 52.8821 40.1007 52.3849 40.1007 51.7727C40.1007 51.1597 39.6042 50.6632 38.9917 50.6632ZM38.9917 52.644C38.8772 52.6441 38.7639 52.6217 38.6581 52.5779C38.5523 52.5342 38.4562 52.47 38.3753 52.3891C38.2943 52.3081 38.2302 52.212 38.1864 52.1062C38.1426 52.0005 38.1202 51.8871 38.1203 51.7727C38.1203 51.2912 38.5096 50.9018 38.9917 50.9018C39.4732 50.9018 39.8629 51.2912 39.8629 51.7727C39.8629 52.2543 39.4732 52.644 38.9917 52.644ZM39.4475 51.5154C39.4475 51.466 39.4377 51.4171 39.4188 51.3715C39.3998 51.3259 39.3721 51.2844 39.3372 51.2495C39.3022 51.2146 39.2607 51.1869 39.215 51.1681C39.1694 51.1492 39.1205 51.1395 39.0711 51.1396H38.5365V52.406H38.7741V51.8917H38.9447L39.1847 52.406H39.4476L39.1969 51.8697C39.2701 51.8437 39.3335 51.7957 39.3784 51.7323C39.4232 51.6689 39.4473 51.5931 39.4475 51.5154ZM39.0711 51.6539H38.7741V51.3768H39.0711C39.1475 51.3768 39.21 51.4389 39.21 51.5155C39.2098 51.5522 39.1951 51.5874 39.1691 51.6134C39.1431 51.6393 39.1078 51.6539 39.0711 51.6539Z" fill="#010101"/>
<path d="M56.9635 16.0428H53.7556C53.6252 15.6703 53.4071 15.3054 53.0854 14.9844C52.1546 14.0523 50.9041 13.9008 50.1758 14.6286C50.022 14.783 49.9071 14.9668 49.8307 15.1709C49.6163 15.0139 49.3476 14.8719 49.0271 14.745C48.5767 13.7993 47.9407 12.4623 46.511 12.4623C46.0004 12.4623 45.5432 12.6208 45.1837 12.7992C44.1297 11.9645 41.8444 10.402 39.5117 10.402C36.9574 10.402 33.4132 12.7475 32.374 12.7475C31.6169 12.7475 29.9183 9 27.2814 9C25.8648 9 24.4297 9.96005 22.7196 10.9916C21.0883 11.9686 20.6522 13.1503 20.1803 14.3963C20.0194 14.8025 19.3081 15.5458 18.8142 16.0428H10.6293L24.567 40.28H15.0249L11.986 45.7524H25.987C26.467 45.7524 27.0002 45.5882 27.4752 45.3382L33.7971 56.3333L39.9488 45.6342H45.0723V42.6337H44.7283C44.7249 41.5914 43.9359 40.455 43.5403 39.9533L43.4647 39.5199L44.6401 37.4741L51.4914 34.9475C52.6037 34.5374 53.1204 33.5407 53.3608 32.7619C53.3608 32.7619 54.1166 32.7543 54.8059 31.9627C55.289 32.0872 55.9035 32.2157 56.3797 32.2157C57.4163 32.2157 58.5052 31.6232 58.7864 30.52C58.7864 30.52 59.8837 29.8456 60.3708 27.7724L51.8422 24.949L56.9635 16.0428Z" fill="white"/>
<path d="M50.3183 26.5403L51.389 26.8945L51.382 27.5851C50.8117 27.5634 50.3555 27.4548 50.3555 29.1222C50.3555 30.3662 50.5927 30.7693 50.5927 31.1201C50.5927 31.7152 50.542 31.8565 48.6713 31.8565C48.6713 31.8565 48.3791 31.5018 47.3528 31.1044C47.3528 31.1044 47.3335 31.0094 47.2916 30.8352L55.2157 17.0547H52.815C52.9927 16.7136 52.8176 16.1464 52.3703 15.699C51.8639 15.1931 51.2015 15.0338 50.8914 15.3438C50.7502 15.4845 50.7073 15.6986 50.7487 15.9379L49.7619 16.9726C49.7885 16.8163 49.8443 15.9951 48.2943 15.5526C47.8274 14.6285 47.4379 13.4734 46.511 13.4734C45.7536 13.4734 45.0963 14.0494 45.0963 14.0494C45.0963 14.0494 42.2647 11.413 39.5117 11.413C37.122 11.413 33.825 13.7593 32.3739 13.7593C30.8255 13.7593 29.4573 10.0109 27.2813 10.0109C26.1117 10.0109 24.7307 10.9515 23.2443 11.8566C21.7587 12.7589 21.4816 13.865 21.1194 14.7719C20.8795 15.3731 20.1195 16.1788 19.2317 17.0547H12.3793L26.2975 41.2605C26.1917 41.2796 26.0889 41.2927 25.9948 41.2927H15.6203L13.7048 44.7403H25.9869C26.5093 44.7403 27.2253 44.4263 27.5779 44.0407L27.7739 43.8286L33.797 54.3033L39.363 44.6223H44.0611V43.6455H42.9323L42.7319 43.0174H42.904L43.7173 42.6412C43.7173 41.7026 42.5888 40.3849 42.5888 40.3849L42.4047 39.3338L43.9462 36.6521L51.1418 33.9982C52.4176 33.5281 52.5599 31.6687 52.5599 31.6687C52.5599 31.6687 53.7298 32.2183 54.376 30.7908C54.376 30.7908 55.6735 31.2054 56.3795 31.2054C56.9923 31.2054 57.849 30.8744 57.849 29.9539C57.849 29.9539 58.7939 29.3878 59.1028 28.4193L50.6252 25.6113L50.3183 26.5403ZM51.0231 16.3211C51.3186 16.3211 51.4884 16.4355 51.4884 16.6011C51.4884 16.7658 50.8907 17.5509 50.1328 17.5509C49.973 17.5509 49.9361 17.4636 49.9361 17.4141C49.9361 17.1726 50.7259 16.3211 51.023 16.3211H51.0231ZM50.3842 17.9491C51.0834 18.7925 51.1083 19.7182 51.1083 19.7182L50.182 18.0924C50.182 17.9268 50.3842 17.9491 50.3842 17.9491ZM49.9539 18.5036C49.9539 18.5036 50.9749 19.6335 50.9749 20.2707C50.9749 20.6198 50.6961 20.4795 50.6961 20.4795L49.7067 18.9975L49.9539 18.5036ZM50.1189 21.2418C49.6337 21.2418 49.1717 19.9252 49.1717 19.9252C49.1717 19.9252 49.2204 19.659 49.4799 19.659C50.3084 20.3657 50.1189 21.2418 50.1189 21.2418ZM48.4693 20.542C49.2923 20.542 49.6162 22.041 49.5435 22.3131C48.745 22.3131 48.4693 20.542 48.4693 20.542ZM48.7586 23.2391C47.5959 23.2391 47.0069 21.1377 47.0069 21.1377C47.0069 21.1377 47.0303 20.8466 47.8535 20.9111C47.8535 20.9111 49.0218 22.098 48.7586 23.2391ZM49.5314 17.9674C49.5314 19.0235 48.3095 20.3207 47.7041 20.3207C47.3852 20.3207 47.3372 20.068 47.3372 20.068C47.3372 20.068 48.0921 18.4624 49.2113 17.7417C49.2113 17.7417 49.5314 17.75 49.5314 17.9674ZM48.4505 16.3407C48.9569 16.0514 49.7051 16.9871 48.9906 17.3492C47.9354 17.8656 46.8006 20.0479 46.8006 20.0479C46.2918 20.1337 46.1024 19.8219 46.1024 19.8219C46.1024 19.8219 46.3271 17.7163 48.4505 16.3407ZM35.597 34.617C35.2041 35.0645 34.1015 34.2967 34.52 33.8586L46.043 21.7478C46.4697 21.3217 47.0355 21.8493 46.6311 22.3019L35.5971 34.6169L35.597 34.617ZM36.3802 36.0291L36.2793 36.3592L35.888 36.298L35.9505 35.7186C36.1794 35.6558 36.2746 35.9663 36.3802 36.0291ZM35.1942 35.4651C35.5906 35.4651 35.5745 36.0351 35.5745 36.979C35.5745 37.6086 35.3339 37.8613 35.1685 37.8613C34.8716 37.8613 34.8868 37.4059 34.7957 37.244C34.7957 37.244 34.9182 37.0836 34.9182 36.7626C34.9182 36.4403 34.7565 35.4651 35.1942 35.4651ZM29.81 34.3412C29.5512 34.5986 29.0864 34.5662 29.0864 34.5662C29.0864 34.5662 27.8213 33.4531 28.5932 32.383C29.4112 32.8841 29.8099 34.3412 29.8099 34.3412H29.81ZM29.2087 32.0141C29.2087 31.5351 30.2275 31.1989 30.2275 32.0975C30.2275 33.2347 30.4464 33.2163 30.4464 33.3725C30.4464 33.5839 30.0349 33.4332 30.0349 33.4332C30.0349 33.0858 29.2088 32.492 29.2088 32.0141H29.2087ZM31.3417 34.2037C31.8363 34.2037 31.6641 34.8336 31.6641 34.8336C30.7769 34.622 29.4594 35.8828 29.4594 35.8828C29.4594 35.8828 29.3702 35.6859 29.3702 35.4648C29.3702 35.0363 30.3361 34.2037 31.3416 34.2037H31.3417ZM30.6337 31.9309C30.6337 31.2797 31.2522 30.9671 31.2522 32.7758C31.0363 32.9908 30.6337 32.6565 30.6337 31.9309V31.9309ZM30.2 35.9459C31.0227 38.5923 31.7711 40.0158 31.7711 40.0158L31.4787 40.1686C31.4787 40.1686 29.9836 39.1118 29.7681 36.6255L30.2 35.9459ZM30.7996 35.6168C32.2454 34.8192 32.8176 37.244 32.8176 37.244C32.8176 39.5549 32.5916 39.9413 32.5916 39.9413C32.254 39.8536 31.4541 38.2916 30.7996 35.6168ZM32.3022 33.6179C32.1406 33.709 31.7897 33.7265 31.7897 33.1999C31.7897 32.6906 31.6226 31.9539 31.8504 31.4569C32.647 31.8333 32.1012 33.218 32.3022 33.6179ZM32.2153 34.7507C32.2153 34.5772 32.4328 34.2976 32.8445 34.2976C33.257 34.2976 33.6398 34.3685 33.6398 34.8064C33.6398 35.3416 32.9926 35.6997 32.8793 35.6997C32.6799 35.6997 32.2153 35.2053 32.2153 34.7507ZM32.653 31.7247C32.653 31.7247 33.2811 31.6588 33.2811 32.4342C33.2811 32.7389 33.2816 33.2493 33.3122 33.4746C33.171 33.6933 32.7566 33.5159 32.7566 33.5159C32.7566 33.5159 32.5491 32.3662 32.653 31.7247ZM33.3944 36.6255C33.3944 36.6255 34.2391 35.7764 34.2391 37.819C34.2391 39.5449 33.077 40.4142 33.077 39.7341C33.077 39.3158 33.5132 39.3635 33.3943 36.6255H33.3944ZM33.8056 32.3217C33.8056 32.3217 34.2101 32.1354 34.2101 32.9775C34.2101 33.8266 34.1206 33.7763 33.9924 33.8476C33.9924 33.8476 33.647 33.3231 33.8056 32.3217ZM34.2087 36.0937C34.0845 36.0937 33.8689 35.9608 33.8689 35.7887C33.8689 35.2608 34.0109 34.9544 34.2673 34.9544C34.423 34.9544 34.4879 35.1253 34.4879 35.3071C34.4879 35.8967 34.295 36.0937 34.2087 36.0937ZM45.8321 20.663C45.8321 20.663 46.2384 20.4854 46.4667 21.2087C46.1042 21.1896 45.8837 21.3494 45.8837 21.3494C45.8837 21.3494 45.6692 20.9052 45.8321 20.663ZM46.9698 13.9598L47.418 14.9201C46.9429 14.9201 46.6127 14.2027 46.6127 14.0633C46.6127 13.8818 46.9272 13.8674 46.9698 13.9598ZM45.9765 14.0153L47.3976 15.9492C47.3976 15.9492 47.2866 16.1797 47.0904 15.9699L45.5436 14.3229C45.5436 14.3229 45.6173 14.0153 45.9765 14.0153ZM45.2558 14.7327L46.9468 16.6697C47.0381 16.7613 46.7289 17.0064 46.5541 16.835L44.6384 14.9612C44.6384 14.9612 45.0311 14.4756 45.2558 14.7327ZM44.2476 15.3881C44.532 15.3881 46.3522 16.794 46.3522 17.2091C46.3522 17.2572 46.2193 17.4448 46.1421 17.3901L43.8351 15.7423C43.8351 15.7423 43.9636 15.3881 44.2476 15.3881ZM43.4516 16.2966C44.3421 16.7002 45.1331 17.2033 45.9349 17.7354C46.0681 17.8252 45.8585 18.2419 45.7291 18.1734L43.303 16.8567C43.303 16.8567 43.2287 16.5928 43.4516 16.2966ZM43.1761 17.3901C43.6708 17.5314 45.2922 18.4266 45.502 18.5655C45.6825 18.6826 45.4253 18.9508 45.3387 18.9142L43.0516 17.8442C43.0516 17.8442 42.8991 17.6727 43.1761 17.3901ZM42.7405 18.3167C43.6491 18.5728 44.8017 19.1826 44.8017 19.1826C43.1811 19.2637 42.6801 18.5037 42.6801 18.5037L42.7405 18.3167ZM32.4953 18.0842C35.9424 18.0842 39.7659 21.3623 42.3869 24.9972L35.2222 32.5258C31.221 30.4123 27.3433 27.057 27.3433 22.7441C27.3433 20.3485 29.4186 18.0842 32.4953 18.0842ZM23.1585 12.9216C23.733 12.6475 24.1367 13.1955 24.1367 13.1955C24.0581 13.4075 23.4308 13.853 23.4308 14.2974C23.4308 14.5367 24.6146 14.5569 24.6146 15.4717C24.6146 15.8715 24.4104 16.0723 24.4104 16.0723L23.942 16.1113C23.942 16.1113 24.1437 15.9133 24.1437 15.5376C24.1437 15.2148 23.8185 14.9365 23.5919 14.9365C22.9191 14.9365 23.0772 15.9099 22.6102 15.5237C22.7488 14.7659 23.0722 14.1732 23.1585 12.9216ZM20.8931 16.1804C22.1467 17.435 22.7124 18.8142 22.7124 18.8142C22.4595 19.4412 19.7033 20.6948 19.7033 20.6948L21.3336 17.6864L17.2568 21.1979C17.2568 21.1979 17.3196 19.5671 17.8208 19.0026C18.3231 18.4403 20.8931 16.1804 20.8931 16.1804ZM16.1057 44.3123H14.4331L15.8722 41.7214H17.5461L16.1057 44.3123ZM27.262 43.7504C26.9886 44.0494 26.3932 44.3123 25.9869 44.3123H24.7585L25.9307 41.7214H25.9948C26.6276 41.7214 27.4712 41.3696 27.9178 40.9197L29.8979 38.9228L30.6732 40.0297L27.262 43.7504ZM40.286 43.0174H41.5811L41.4012 43.6455H39.9255L40.286 43.0174V43.0174ZM36.2487 42.4235C36.1425 42.2883 36.2568 42.0225 36.4998 41.8311C36.7465 41.6374 37.0335 41.5932 37.1381 41.73C37.2456 41.8653 37.1329 42.1322 36.8875 42.3247C36.6411 42.5164 36.3549 42.5604 36.2487 42.4235ZM42.6919 43.9765H43.7318V44.2932H35.4926C35.6216 43.6002 36.0181 43.1194 36.1087 43.0174H36.3946L36.9377 43.9765H37.8339L38.1384 43.0174H38.6409L38.992 43.9765H41.6507L41.9236 43.0174H42.386L42.6919 43.9765ZM43.0291 35.0658C41.8594 35.0658 39.6314 34.5141 37.2145 33.4763L43.4205 26.5484C44.7543 28.7304 45.586 30.8922 45.586 32.4247C45.586 34.7673 44.1111 35.0657 43.0291 35.0657V35.0658ZM52.4943 27.8883L52.843 27.3758L54.9136 28.0606L54.9321 28.6967L52.4943 27.8883ZM56.4562 30.6566C56.1528 30.7293 55.8742 30.6526 55.8347 30.4831C55.7925 30.3165 56.007 30.119 56.3097 30.0457C56.6106 29.973 56.8915 30.0525 56.9307 30.22C56.9721 30.3884 56.7594 30.5839 56.4562 30.6566ZM56.091 29.0807L56.4579 28.5729L56.8996 28.7197L57.033 29.3928L56.091 29.0807ZM50.8347 26.0286L58.663 28.6197C58.3879 29.1512 57.9169 29.5088 57.7443 29.6284L57.3924 29.5123L57.1863 28.4658L56.3332 28.1835L55.7623 28.9712L55.2659 28.8067L55.2352 27.8207L52.7096 26.9844L52.1677 27.7809L51.711 27.6293L51.7212 26.6566L50.7347 26.3301L50.8346 26.0285L50.8347 26.0286Z" fill="#010101"/>
<path d="M29.232 36.4324C28.7873 35.3612 28.9838 35.1171 28.9838 35.1171C28.9838 35.1171 27.5554 33.9436 27.9792 32.4836C27.9792 32.4836 24.3027 27.1564 24.3027 23.9978C24.3027 22.3628 25.0962 22.5219 25.0962 21.1853C25.0962 20.0879 24.3453 19.2678 23.8075 19.2678C23.1909 19.2678 21.2663 20.5386 18.4476 22.1998L19.5144 19.7549L16.9436 22.3895C16.9436 22.3895 16.4414 19.8177 17.8247 18.4357C18.0489 18.2096 18.2788 17.9865 18.5072 17.7631H13.603L26.9865 41.0363C27.2303 40.9199 27.4555 40.7768 27.6127 40.6172L29.7225 38.4902C29.3851 37.6999 29.232 36.8811 29.232 36.4324H29.232ZM45.3466 20.1314L45.0962 19.5671C43.7995 19.7855 42.639 19.1281 42.3073 18.957C41.9748 18.7883 42.3376 18.0619 42.3376 18.0619C42.3376 18.0619 42.2477 17.9051 42.0439 17.7631H40.6875C40.4321 17.9923 40.3725 18.346 40.5813 18.5613C42.0206 20.055 43.1761 21.6581 44.0966 23.2034L45.6011 21.6217L45.3466 20.1314V20.1314ZM50.8467 17.9787C51.6341 18.9094 51.3092 19.8624 51.3092 19.8624C51.3092 20.5824 50.9286 20.5703 50.9286 20.5703C50.9286 22.2449 50.0496 21.9508 50.0496 21.9508C50.0496 24.1548 47.6219 23.2613 47.6219 23.2613C47.2259 23.2101 46.896 23.1003 46.6276 22.97L44.984 24.8041C46.0495 26.8786 46.6883 28.7221 47.0289 29.871L53.989 17.7631H51.0403L50.8467 17.9787ZM39.5778 35.555C39.5778 35.407 37.3709 34.821 36.505 34.4893C35.7135 34.8003 36.7417 34.9591 36.7417 35.9872C36.7417 36.5965 36.4451 37.3111 36.4451 37.3111L36.0043 37.4361C36.0043 37.4361 35.1272 39.0542 34.5636 38.8159C33.7593 40.2306 33.4301 40.5579 32.1522 40.5579C31.7418 40.5579 31.3805 40.4383 31.063 40.2384L28.2751 43.2791L33.797 52.8821L38.5461 44.6224H35.1319C35.1319 43.7429 35.6912 43.0175 35.6912 43.0175C35.6912 41.6176 36.5534 41.3194 37.1957 41.2621C38.5604 41.142 39.1168 41.2605 39.1168 40.5937C39.1168 40.1228 39.0758 39.5672 39.0758 39.5672H39.5778C39.5778 37.7334 39.065 37.2881 39.065 36.3522C39.065 35.9937 39.5778 35.8389 39.5778 35.555ZM39.178 43.5226L39.4684 43.0175H38.9913L39.178 43.5226Z" fill="#FFB81C"/>
<path d="M37.129 43.6455H37.5928L37.7929 43.0174H36.7736L37.129 43.6455ZM41.7638 39.0251L42.8342 37.1633L41.6403 37.7493L41.7638 39.0251Z" fill="#FFB81C"/>
</g>
<defs>
<clipPath id="clip0_33_1954">
<rect width="71" height="47.3333" fill="white" transform="translate(0 9)"/>
</clipPath>
</defs>
</svg>
